<svg width="30" height="39" viewBox="0 0 30 39" fill="none" xmlns="http://www.w3.org/2000/svg">
<path d="M25.3846 0C22.8397 0 20.7693 2.05428 20.7693 4.57922V7.48488C20.0898 7.09389 19.302 6.8688 18.4616 6.8688C17.084 6.8688 15.8464 7.4714 15 8.424C14.1536 7.47147 12.916 6.8688 11.5385 6.8688C10.6981 6.8688 9.9103 7.09389 9.23079 7.48488V4.57922C9.23079 2.05428 7.16038 0 4.61543 0C2.07049 0 0 2.05428 0 4.57922V19.5382V21.8278V26.407C0 33.3508 5.69378 39 12.6923 39H17.3077C24.3062 39 30 33.3508 30 26.407V4.57922C30.0001 2.05428 27.9296 0 25.3846 0ZM16.1539 11.4482C16.1539 10.1857 17.1891 9.15853 18.4616 9.15853C19.734 9.15853 20.7693 10.1856 20.7693 11.4482V16.7198C20.0898 16.3288 19.302 16.1037 18.4616 16.1037H16.1539V11.4482ZM9.23079 11.4482C9.23079 10.1857 10.266 9.15853 11.5385 9.15853C12.8109 9.15853 13.8462 10.1856 13.8462 11.4482V16.1037H9.23086V11.4482H9.23079ZM2.30772 4.57922C2.30772 3.31675 3.34292 2.28957 4.61543 2.28957C5.88787 2.28957 6.92315 3.31668 6.92315 4.57922V16.1858C5.12712 16.4419 3.52034 17.2861 2.30779 18.5152V4.57922H2.30772ZM27.6924 26.407C27.6924 32.0883 23.0338 36.7104 17.3078 36.7104H12.6924C6.96629 36.7104 2.30779 32.0882 2.30779 26.407V24.1174C2.30779 20.9611 4.89588 18.3933 8.07704 18.3933H18.4616C19.7341 18.3933 20.7694 19.4204 20.7694 20.6829C20.7694 21.9455 19.7342 22.9726 18.4616 22.9726H8.07697C7.43975 22.9726 6.92315 23.4852 6.92315 24.1174C6.92315 24.7496 7.43975 25.2622 8.07697 25.2622C12.5306 25.2622 16.1539 28.8571 16.1539 33.2758C16.1539 33.9081 16.6705 34.4206 17.3077 34.4206C17.9449 34.4206 18.4615 33.9081 18.4615 33.2758C18.4615 30.0423 16.9521 27.1525 14.5961 25.2622H18.4615C21.0064 25.2622 23.0769 23.2079 23.0769 20.6829V4.57922C23.0769 3.31675 24.1121 2.28957 25.3846 2.28957C26.657 2.28957 27.6923 3.31668 27.6923 4.57922V26.407H27.6924Z" fill="#EDC043"/>
</svg>
